<svg xmlns="http://www.w3.org/2000/svg" style="margin:auto;background:rgba(241, 242, 243, 0);display:block;" width="280" height="250" preserveAspectRatio="xMidYMid">
<style type="text/css">
  text {
    text-anchor: middle; font-size: 20px; opacity: 0;
  }
</style>
<g style="transform-origin: 140px 125px; transform: scale(0.25);">
<g transform="translate(140,125)">
  <g transform="translate(0,0)"><g class="path" style="transform: translate(-10px) rotate(-20deg); transform-origin: -418.4px -6.81252px; animation: 3.22581s linear -0.910816s infinite normal forwards running metronome-5f78c257-83a4-4628-8e61-97975f408c73;"><path d="M48.56 0L27.44 0L27.44-10L1.44-10L1.44-23.12L29.04-62.24L48.56-62.24L48.56-22.16L54.08-22.16L54.08-10L48.56-10L48.56 0zM27.44-37.92L16.24-22.16L27.44-22.16L27.44-37.92" fill="#3869c5" stroke="none" stroke-width="none" transform="translate(-446.1600036621094,24.307476268095133)" style="fill: rgb(56, 105, 197);"></path></g><g class="path" style="transform: translate(-10px) rotate(-20deg); transform-origin: -361.36px -6.81252px; animation: 3.22581s linear -0.85389s infinite normal forwards running metronome-5f78c257-83a4-4628-8e61-97975f408c73;"><path d="M84.80 1.12L84.80 1.12Q71.28 1.12 63.96-6.56L63.96-6.56L63.96-6.56Q56.64-14.24 56.64-31.12L56.64-31.12L56.64-31.12Q56.64-48 63.96-55.68L63.96-55.68L63.96-55.68Q71.28-63.36 84.80-63.36L84.80-63.36L84.80-63.36Q98.32-63.36 105.64-55.68L105.64-55.68L105.64-55.68Q112.96-48 112.96-31.12L112.96-31.12L112.96-31.12Q112.96-15.52 106.20-7.20L106.20-7.20L106.20-7.20Q99.44 1.12 84.80 1.12L84.80 1.12zM84.80-13.12L84.80-13.12Q90.24-13.12 90.24-19.04L90.24-19.04L90.24-43.20L90.24-43.20Q90.24-49.12 84.80-49.12L84.80-49.12L84.80-49.12Q79.36-49.12 79.36-43.20L79.36-43.20L79.36-19.04L79.36-19.04Q79.36-13.12 84.80-13.12L84.80-13.12" fill="#3869c5" stroke="none" stroke-width="none" transform="translate(-446.1600036621094,24.307476268095133)" style="fill: rgb(70, 134, 244);"></path></g><g class="path" style="transform: translate(-10px) rotate(-20deg); transform-origin: -304.32px -6.81252px; animation: 3.22581s linear -0.796964s infinite normal forwards running metronome-5f78c257-83a4-4628-8e61-97975f408c73;"><path d="M162.64 0L141.52 0L141.52-10L115.52-10L115.52-23.12L143.12-62.24L162.64-62.24L162.64-22.16L168.16-22.16L168.16-10L162.64-10L162.64 0zM141.52-37.92L130.32-22.16L141.52-22.16L141.52-37.92" fill="#3869c5" stroke="none" stroke-width="none" transform="translate(-446.1600036621094,24.307476268095133)" style="fill: rgb(56, 105, 197);"></path></g><g class="path" style="transform: translate(-10px) rotate(-20deg); transform-origin: -222.8px -6.81252px; animation: 3.22581s linear -0.740038s infinite normal forwards running metronome-5f78c257-83a4-4628-8e61-97975f408c73;"><path d="M195.20 0L195.20-13.12L199.20-13.12L199.20-49.12L195.20-49.12L195.20-62.24L230.32-62.24L230.32-62.24Q240.64-62.24 246.08-57.80L246.08-57.80L246.08-57.80Q251.52-53.36 251.52-43.44L251.52-43.44L251.52-43.44Q251.52-33.52 246.08-29.08L246.08-29.08L246.08-29.08Q240.64-24.64 230.32-24.64L230.32-24.64L221.60-24.64L221.60-13.12L229.28-13.12L229.28 0L195.20 0zM221.60-36L224.32-36L224.32-36Q228.96-36 228.96-41.12L228.96-41.12L228.96-44L228.96-44Q228.96-46.64 227.80-47.88L227.80-47.88L227.80-47.88Q226.64-49.12 224.32-49.12L224.32-49.12L221.60-49.12L221.60-36" fill="#3869c5" stroke="none" stroke-width="none" transform="translate(-446.1600036621094,24.307476268095133)" style="fill: rgb(70, 134, 244);"></path></g><g class="path" style="transform: translate(-10px) rotate(-20deg); transform-origin: -170.36px 2.06748px; animation: 3.22581s linear -0.683112s infinite normal forwards running metronome-5f78c257-83a4-4628-8e61-97975f408c73;"><path d="M295.60-13.12L299.12-13.12L299.12 0L278 0L278-5.44L278-5.44Q276.24-2.88 273.08-0.88L273.08-0.88L273.08-0.88Q269.92 1.12 265.36 1.12L265.36 1.12L265.36 1.12Q259.36 1.12 255.92-2.08L255.92-2.08L255.92-2.08Q252.48-5.28 252.48-11.12L252.48-11.12L252.48-11.12Q252.48-26.24 278.16-26.64L278.16-26.64L278.16-26.64Q277.92-29.36 276.08-30.36L276.08-30.36L276.08-30.36Q274.24-31.36 269.84-31.36L269.84-31.36L269.84-31.36Q266.24-31.36 262.12-30.60L262.12-30.60L262.12-30.60Q258-29.84 254.56-28.56L254.56-28.56L254.56-43.28L254.56-43.28Q258.80-44.32 263.76-44.96L263.76-44.96L263.76-44.96Q268.72-45.60 273.44-45.60L273.44-45.60L273.44-45.60Q285.36-45.60 290.48-41.28L290.48-41.28L290.48-41.28Q295.60-36.96 295.60-27.92L295.60-27.92L295.60-13.12zM278-18.24L278-18.72L278-18.72Q274.40-18.72 272.44-17.76L272.44-17.76L272.44-17.76Q270.48-16.80 270.48-14.56L270.48-14.56L270.48-14.56Q270.48-13.20 271.32-12.36L271.32-12.36L271.32-12.36Q272.16-11.52 273.68-11.52L273.68-11.52L273.68-11.52Q275.76-11.52 276.88-13.28L276.88-13.28L276.88-13.28Q278-15.04 278-18.24L278-18.24" fill="#3869c5" stroke="none" stroke-width="none" transform="translate(-446.1600036621094,24.307476268095133)" style="fill: rgb(56, 105, 197);"></path></g><g class="path" style="transform: translate(-10px) rotate(-20deg); transform-origin: -119.76px 10.9475px; animation: 3.22581s linear -0.626186s infinite normal forwards running metronome-5f78c257-83a4-4628-8e61-97975f408c73;"><path d="M325.12 18.88L325.12 18.88Q319.36 18.88 314.12 18.08L314.12 18.08L314.12 18.08Q308.88 17.28 306 16.24L306 16.24L306 3.12L306 3.12Q314.48 4.64 321.20 4.64L321.20 4.64L321.20 4.64Q325.76 4.64 327.80 3.24L327.80 3.24L327.80 3.24Q329.84 1.84 329.84-2L329.84-2L329.84-5.44L329.84-5.44Q327.84-2.88 324.68-0.88L324.68-0.88L324.68-0.88Q321.52 1.12 317.44 1.12L317.44 1.12L317.44 1.12Q309.28 1.12 305.16-4.96L305.16-4.96L305.16-4.96Q301.04-11.04 301.04-22.24L301.04-22.24L301.04-22.24Q301.04-33.44 305.16-39.52L305.16-39.52L305.16-39.52Q309.28-45.60 317.44-45.60L317.44-45.60L317.44-45.60Q321.52-45.60 324.68-43.60L324.68-43.60L324.68-43.60Q327.84-41.60 329.84-39.04L329.84-39.04L329.84-44.48L351.76-44.48L351.76-31.36L348.24-31.36L348.24-3.20L348.24-3.20Q348.24 8.40 342.48 13.64L342.48 13.64L342.48 13.64Q336.72 18.88 325.12 18.88L325.12 18.88zM325.20-13.12L325.20-13.12Q327.52-13.12 328.68-14.36L328.68-14.36L328.68-14.36Q329.84-15.60 329.84-18.24L329.84-18.24L329.84-26.24L329.84-26.24Q329.84-28.88 328.68-30.12L328.68-30.12L328.68-30.12Q327.52-31.36 325.20-31.36L325.20-31.36L325.20-31.36Q322.88-31.36 321.72-30.12L321.72-30.12L321.72-30.12Q320.56-28.88 320.56-26.24L320.56-26.24L320.56-18.24L320.56-18.24Q320.56-15.60 321.72-14.36L321.72-14.36L321.72-14.36Q322.88-13.12 325.20-13.12L325.20-13.12" fill="#3869c5" stroke="none" stroke-width="none" transform="translate(-446.1600036621094,24.307476268095133)" style="fill: rgb(70, 134, 244);"></path></g><g class="path" style="transform: translate(-10px) rotate(-20deg); transform-origin: -69.76px 2.06748px; animation: 3.22581s linear -0.56926s infinite normal forwards running metronome-5f78c257-83a4-4628-8e61-97975f408c73;"><path d="M377.84 1.12L377.84 1.12Q366.48 1.12 360.08-4.84L360.08-4.84L360.08-4.84Q353.68-10.80 353.68-22.24L353.68-22.24L353.68-22.24Q353.68-33.68 360.08-39.64L360.08-39.64L360.08-39.64Q366.48-45.60 377.84-45.60L377.84-45.60L377.84-45.60Q389.12-45.60 394.12-39.72L394.12-39.72L394.12-39.72Q399.12-33.84 399.12-25.12L399.12-25.12L399.12-19.36L373.20-19.36L373.20-18.88L373.20-18.88Q373.20-15.92 374.96-14.52L374.96-14.52L374.96-14.52Q376.72-13.12 380.80-13.12L380.80-13.12L380.80-13.12Q385.68-13.12 390.08-13.84L390.08-13.84L390.08-13.84Q394.48-14.56 397.76-15.68L397.76-15.68L397.76-2.88L397.76-2.88Q394.96-1.36 389.56-0.12L389.56-0.12L389.56-0.12Q384.16 1.12 377.84 1.12L377.84 1.12zM373.20-28.16L382.48-28.16L382.48-29.12L382.48-29.12Q382.48-31.84 381.32-33.04L381.32-33.04L381.32-33.04Q380.16-34.24 377.84-34.24L377.84-34.24L377.84-34.24Q375.52-34.24 374.36-33L374.36-33L374.36-33Q373.20-31.76 373.20-29.12L373.20-29.12L373.20-28.16" fill="#3869c5" stroke="none" stroke-width="none" transform="translate(-446.1600036621094,24.307476268095133)" style="fill: rgb(56, 105, 197);"></path></g><g class="path" style="transform: translate(-10px) rotate(-20deg); transform-origin: 15.68px -6.81252px; animation: 3.22581s linear -0.512334s infinite normal forwards running metronome-5f78c257-83a4-4628-8e61-97975f408c73;"><path d="M471.76-49.12L471.76-62.24L498-62.24L498-49.12L494-49.12L494 0L471.52 0L448.08-36.08L448.08-13.12L451.92-13.12L451.92 0L425.68 0L425.68-13.12L429.68-13.12L429.68-49.12L425.68-49.12L425.68-62.24L454.56-62.24L475.60-30.16L475.60-49.12L471.76-49.12" fill="#3869c5" stroke="none" stroke-width="none" transform="translate(-446.1600036621094,24.307476268095133)" style="fill: rgb(70, 134, 244);"></path></g><g class="path" style="transform: translate(-10px) rotate(-20deg); transform-origin: 78.56px 2.06748px; animation: 3.22581s linear -0.455408s infinite normal forwards running metronome-5f78c257-83a4-4628-8e61-97975f408c73;"><path d="M524.72 1.12L524.72 1.12Q513.36 1.12 506.96-4.84L506.96-4.84L506.96-4.84Q500.56-10.80 500.56-22.24L500.56-22.24L500.56-22.24Q500.56-33.68 506.96-39.64L506.96-39.64L506.96-39.64Q513.36-45.60 524.72-45.60L524.72-45.60L524.72-45.60Q536.24-45.60 542.56-39.56L542.56-39.56L542.56-39.56Q548.88-33.52 548.88-22.24L548.88-22.24L548.88-22.24Q548.88-10.80 542.48-4.84L542.48-4.84L542.48-4.84Q536.08 1.12 524.72 1.12L524.72 1.12zM524.72-13.12L524.72-13.12Q527.04-13.12 528.20-14.36L528.20-14.36L528.20-14.36Q529.36-15.60 529.36-18.24L529.36-18.24L529.36-26.24L529.36-26.24Q529.36-28.88 528.20-30.12L528.20-30.12L528.20-30.12Q527.04-31.36 524.72-31.36L524.72-31.36L524.72-31.36Q522.40-31.36 521.24-30.12L521.24-30.12L521.24-30.12Q520.08-28.88 520.08-26.24L520.08-26.24L520.08-18.24L520.08-18.24Q520.08-15.60 521.24-14.36L521.24-14.36L521.24-14.36Q522.40-13.12 524.72-13.12L524.72-13.12" fill="#3869c5" stroke="none" stroke-width="none" transform="translate(-446.1600036621094,24.307476268095133)" style="fill: rgb(56, 105, 197);"></path></g><g class="path" style="transform: translate(-10px) rotate(-20deg); transform-origin: 121.64px -2.09252px; animation: 3.22581s linear -0.398482s infinite normal forwards running metronome-5f78c257-83a4-4628-8e61-97975f408c73;"><path d="M571.20 1.12L571.20 1.12Q562.72 1.12 558.44-3L558.44-3L558.44-3Q554.16-7.12 554.16-16.88L554.16-16.88L554.16-31.36L550.64-31.36L550.64-44.48L550.64-44.48Q553.68-44.48 555.20-46.04L555.20-46.04L555.20-46.04Q556.72-47.60 556.72-50.32L556.72-50.32L556.72-53.92L573.68-53.92L573.68-44.48L584.48-44.48L584.48-31.36L573.68-31.36L573.68-18.24L573.68-18.24Q573.68-15.60 574.84-14.36L574.84-14.36L574.84-14.36Q576-13.12 578.32-13.12L578.32-13.12L578.32-13.12Q581.36-13.12 584.96-13.84L584.96-13.84L584.96-1.28L584.96-1.28Q582.72-0.40 578.92 0.36L578.92 0.36L578.92 0.36Q575.12 1.12 571.20 1.12L571.20 1.12" fill="#3869c5" stroke="none" stroke-width="none" transform="translate(-446.1600036621094,24.307476268095133)" style="fill: rgb(70, 134, 244);"></path></g><g class="path" style="transform: translate(-10px) rotate(-20deg); transform-origin: 189.44px -6.81252px; animation: 3.22581s linear -0.341556s infinite normal forwards running metronome-5f78c257-83a4-4628-8e61-97975f408c73;"><path d="M648.56 0L611.68 0L611.68-13.12L615.68-13.12L615.68-49.12L611.68-49.12L611.68-62.24L659.52-62.24L659.52-41.52L645.36-41.52L645.36-49.12L638.08-49.12L638.08-35.84L650.16-35.84L650.16-26.72L638.08-26.72L638.08-13.12L648.56-13.12L648.56 0" fill="#3869c5" stroke="none" stroke-width="none" transform="translate(-446.1600036621094,24.307476268095133)" style="fill: rgb(56, 105, 197);"></path></g><g class="path" style="transform: translate(-10px) rotate(-20deg); transform-origin: 236.56px 2.06748px; animation: 3.22581s linear -0.28463s infinite normal forwards running metronome-5f78c257-83a4-4628-8e61-97975f408c73;"><path d="M682.72 1.12L682.72 1.12Q671.36 1.12 664.96-4.84L664.96-4.84L664.96-4.84Q658.56-10.80 658.56-22.24L658.56-22.24L658.56-22.24Q658.56-33.68 664.96-39.64L664.96-39.64L664.96-39.64Q671.36-45.60 682.72-45.60L682.72-45.60L682.72-45.60Q694.24-45.60 700.56-39.56L700.56-39.56L700.56-39.56Q706.88-33.52 706.88-22.24L706.88-22.24L706.88-22.24Q706.88-10.80 700.48-4.84L700.48-4.84L700.48-4.84Q694.08 1.12 682.72 1.12L682.72 1.12zM682.72-13.12L682.72-13.12Q685.04-13.12 686.20-14.36L686.20-14.36L686.20-14.36Q687.36-15.60 687.36-18.24L687.36-18.24L687.36-26.24L687.36-26.24Q687.36-28.88 686.20-30.12L686.20-30.12L686.20-30.12Q685.04-31.36 682.72-31.36L682.72-31.36L682.72-31.36Q680.40-31.36 679.24-30.12L679.24-30.12L679.24-30.12Q678.08-28.88 678.08-26.24L678.08-26.24L678.08-18.24L678.08-18.24Q678.08-15.60 679.24-14.36L679.24-14.36L679.24-14.36Q680.40-13.12 682.72-13.12L682.72-13.12" fill="#3869c5" stroke="none" stroke-width="none" transform="translate(-446.1600036621094,24.307476268095133)" style="fill: rgb(70, 134, 244);"></path></g><g class="path" style="transform: translate(-10px) rotate(-20deg); transform-origin: 289.36px 2.62748px; animation: 3.22581s linear -0.227704s infinite normal forwards running metronome-5f78c257-83a4-4628-8e61-97975f408c73;"><path d="M758.56-13.12L762.08-13.12L762.08 0L740.16 0L740.16-6.24L740.16-6.24Q734.40 1.12 725.76 1.12L725.76 1.12L725.76 1.12Q719.12 1.12 715.80-3.04L715.80-3.04L715.80-3.04Q712.48-7.20 712.48-14.48L712.48-14.48L712.48-31.36L708.96-31.36L708.96-44.48L730.88-44.48L730.88-18.24L730.88-18.24Q730.88-15.60 732.04-14.36L732.04-14.36L732.04-14.36Q733.20-13.12 735.52-13.12L735.52-13.12L735.52-13.12Q737.84-13.12 739-14.36L739-14.36L739-14.36Q740.16-15.60 740.16-18.24L740.16-18.24L740.16-31.36L735.84-31.36L735.84-44.48L758.56-44.48L758.56-13.12" fill="#3869c5" stroke="none" stroke-width="none" transform="translate(-446.1600036621094,24.307476268095133)" style="fill: rgb(56, 105, 197);"></path></g><g class="path" style="transform: translate(-10px) rotate(-20deg); transform-origin: 344.72px 1.50748px; animation: 3.22581s linear -0.170778s infinite normal forwards running metronome-5f78c257-83a4-4628-8e61-97975f408c73;"><path d="M813.92-13.12L817.44-13.12L817.44 0L792.16 0L792.16-13.12L795.52-13.12L795.52-26.24L795.52-26.24Q795.52-28.88 794.40-30.12L794.40-30.12L794.40-30.12Q793.28-31.36 791.04-31.36L791.04-31.36L791.04-31.36Q786.24-31.36 786.24-26.24L786.24-26.24L786.24-13.12L789.60-13.12L789.60 0L764.32 0L764.32-13.12L767.84-13.12L767.84-31.36L764.32-31.36L764.32-44.48L786.24-44.48L786.24-38.24L786.24-38.24Q792-45.60 800.64-45.60L800.64-45.60L800.64-45.60Q807.28-45.60 810.60-41.44L810.60-41.44L810.60-41.44Q813.92-37.28 813.92-30L813.92-30L813.92-13.12" fill="#3869c5" stroke="none" stroke-width="none" transform="translate(-446.1600036621094,24.307476268095133)" style="fill: rgb(70, 134, 244);"></path></g><g class="path" style="transform: translate(-10px) rotate(-20deg); transform-origin: 398.56px -6.25253px; animation: 3.22581s linear -0.113852s infinite normal forwards running metronome-5f78c257-83a4-4628-8e61-97975f408c73;"><path d="M835.76 1.12L835.76 1.12Q827.60 1.12 823.48-4.96L823.48-4.96L823.48-4.96Q819.36-11.04 819.36-22.24L819.36-22.24L819.36-22.24Q819.36-33.44 823.48-39.52L823.48-39.52L823.48-39.52Q827.60-45.60 835.76-45.60L835.76-45.60L835.76-45.60Q839.84-45.60 843-43.60L843-43.60L843-43.60Q846.16-41.60 848.16-39.04L848.16-39.04L848.16-49.12L843.44-49.12L843.44-62.24L866.56-62.24L866.56-13.12L870.08-13.12L870.08 0L848.16 0L848.16-5.44L848.16-5.44Q846.16-2.88 843-0.88L843-0.88L843-0.88Q839.84 1.12 835.76 1.12L835.76 1.12zM843.52-13.12L843.52-13.12Q845.84-13.12 847-14.36L847-14.36L847-14.36Q848.16-15.60 848.16-18.24L848.16-18.24L848.16-26.24L848.16-26.24Q848.16-28.88 847-30.12L847-30.12L847-30.12Q845.84-31.36 843.52-31.36L843.52-31.36L843.52-31.36Q841.20-31.36 840.04-30.12L840.04-30.12L840.04-30.12Q838.88-28.88 838.88-26.24L838.88-26.24L838.88-18.24L838.88-18.24Q838.88-15.60 840.04-14.36L840.04-14.36L840.04-14.36Q841.20-13.12 843.52-13.12L843.52-13.12" fill="#3869c5" stroke="none" stroke-width="none" transform="translate(-446.1600036621094,24.307476268095133)" style="fill: rgb(56, 105, 197);"></path></g><g class="path" style="transform: translate(-10px) rotate(-20deg); transform-origin: 438.6px -15.5725px; animation: 3.22581s linear -0.056926s infinite normal forwards running metronome-5f78c257-83a4-4628-8e61-97975f408c73;"><path d="M892.96-17.52L876.48-17.52L872.80-58.24L872.80-62.24L896.72-62.24L896.72-58.24L892.96-17.52" fill="#3869c5" stroke="none" stroke-width="none" transform="translate(-446.1600036621094,24.307476268095133)" style="fill: rgb(70, 134, 244);"></path></g><g class="path" style="transform: translate(-10px) rotate(-20deg); transform-origin: 438.56px 17.7475px; animation: 3.22581s linear 0s infinite normal forwards running metronome-5f78c257-83a4-4628-8e61-97975f408c73;"><path d="M893.76 0L875.68 0L875.68-13.12L893.76-13.12L893.76 0" fill="#3869c5" stroke="none" stroke-width="none" transform="translate(-446.1600036621094,24.307476268095133)" style="fill: rgb(56, 105, 197);"></path></g></g>
</g>
</g>
</svg>